<svg fill="#ffffff" xmlns="http://www.w3.org/2000/svg"  viewBox="0 0 100 100" width="50px" height="50px"><path d="M 50 14 C 30.129581 14 14 30.129595 14 50 C 14 69.870405 30.129581 86 50 86 C 69.870419 86 86 69.870405 86 50 C 86 30.129595 69.870419 14 50 14 z M 50 16 C 68.78954 16 84 31.210473 84 50 C 84 68.789527 68.78954 84 50 84 C 31.21046 84 16 68.789527 16 50 C 16 31.210473 31.21046 16 50 16 z M 49.978516 18.916016 C 43.269699 18.92681 36.526276 21.101981 30.873047 25.546875 C 17.950923 35.706992 15.192294 54.201344 24.589844 67.695312 A 0.50005 0.50005 0 1 0 25.410156 67.125 C 16.309753 54.057705 18.978946 36.172614 31.492188 26.333984 C 44.004973 16.495713 62.000865 18.1304 72.552734 30.054688 C 83.104604 41.978974 82.539545 60.042808 71.251953 71.265625 C 59.96395 82.488851 41.88642 82.960563 30.023438 72.337891 A 0.50005 0.50005 0 1 0 29.357422 73.082031 C 41.607755 84.051555 60.300181 83.564566 71.957031 71.974609 C 83.613469 60.385063 84.198734 41.705754 73.302734 29.392578 C 67.854735 23.23599 60.477607 19.735162 52.847656 19.042969 C 51.893912 18.956445 50.936918 18.914474 49.978516 18.916016 z M 50.173828 29.996094 C 44.412944 29.951704 38.720561 32.39395 34.769531 37.042969 C 28.447983 44.481282 28.426501 55.405158 34.714844 62.873047 C 41.003189 70.340936 51.771818 72.179765 60.177734 67.216797 C 68.583783 62.253751 72.178284 51.933794 68.675781 42.820312 A 0.50005 0.50005 0 1 0 67.744141 43.179688 C 71.0739 51.843691 67.661241 61.637286 59.669922 66.355469 C 51.678739 71.073572 41.458856 69.328306 35.480469 62.228516 C 29.502081 55.128725 29.521596 44.760773 35.53125 37.689453 C 41.541005 30.618016 51.773469 28.923568 59.744141 33.679688 A 0.5000956 0.5000956 0 1 0 60.255859 32.820312 C 57.111796 30.94424 53.630358 30.022727 50.173828 29.996094 z M 61.988281 34.146484 A 0.50005 0.50005 0 0 0 61.689453 35.041016 C 62.218837 35.462562 62.725204 35.902915 63.212891 36.371094 A 0.50074405 0.50074405 0 1 0 63.90625 35.648438 C 63.393937 35.156616 62.861163 34.698219 62.310547 34.259766 A 0.50005 0.50005 0 0 0 61.988281 34.146484 z M 64.990234 37.064453 A 0.50005 0.50005 0 0 0 64.615234 37.890625 C 65.34909 38.771293 66.002048 39.715934 66.564453 40.714844 A 0.50005 0.50005 0 1 0 67.435547 40.224609 C 66.843369 39.17282 66.15747 38.177289 65.384766 37.25 A 0.50005 0.50005 0 0 0 64.990234 37.064453 z M 26.292969 68.724609 A 0.50005 0.50005 0 0 0 25.914062 69.548828 C 26.421084 70.164013 26.948553 70.762411 27.496094 71.34375 A 0.50084687 0.50084687 0 0 0 28.224609 70.65625 C 27.69215 70.090923 27.178526 69.510258 26.685547 68.912109 A 0.50005 0.50005 0 0 0 26.292969 68.724609 z"/></svg>